<?xml version="1.0" encoding="UTF-8" standalone="no"?>
<svg
   xmlns:dc="http://purl.org/dc/elements/1.1/"
   xmlns:cc="http://creativecommons.org/ns#"
   xmlns:rdf="http://www.w3.org/1999/02/22-rdf-syntax-ns#"
   xmlns:svg="http://www.w3.org/2000/svg"
   xmlns="http://www.w3.org/2000/svg"
   viewBox="0 0 320 132"
   height="132"
   width="320"
   xml:space="preserve"
   id="svg2"
   version="1.1"><metadata
     id="metadata8"><rdf:RDF><cc:Work
         rdf:about=""><dc:format>image/svg+xml</dc:format><dc:type
           rdf:resource="http://purl.org/dc/dcmitype/StillImage" /></cc:Work></rdf:RDF></metadata><defs
     id="defs6"><clipPath
       id="clipPath20"
       clipPathUnits="userSpaceOnUse"><path
         id="path18"
         d="M 0,0 H 470 V 656 H 0 Z" /></clipPath><clipPath
       id="clipPath30"
       clipPathUnits="userSpaceOnUse"><path
         id="path28"
         d="M 0,0 H 470 V 656 H 0 Z" /></clipPath><clipPath
       id="clipPath60"
       clipPathUnits="userSpaceOnUse"><path
         id="path58"
         d="m 221.6481,453.504 8.0356,3.0845 7.1412,-18.6035 -8.0356,-3.0846 z" /></clipPath><clipPath
       id="clipPath66"
       clipPathUnits="userSpaceOnUse"><path
         id="path64"
         d="M 0,0 H 470 V 656 H 0 Z" /></clipPath><clipPath
       id="clipPath78"
       clipPathUnits="userSpaceOnUse"><path
         id="path76"
         d="m 222.0037,453.694 7.7822,2.9873 7.1372,-18.5931 -7.7822,-2.9873 z" /></clipPath><clipPath
       id="clipPath84"
       clipPathUnits="userSpaceOnUse"><path
         id="path82"
         d="M 0,0 H 470 V 656 H 0 Z" /></clipPath><clipPath
       id="clipPath96"
       clipPathUnits="userSpaceOnUse"><path
         id="path94"
         d="m 221.4171,439.4997 8.5145,-1.1967 -2.1042,-14.9719 -8.5144,1.1966 z" /></clipPath><clipPath
       id="clipPath102"
       clipPathUnits="userSpaceOnUse"><path
         id="path100"
         d="M 0,0 H 470 V 656 H 0 Z" /></clipPath><clipPath
       id="clipPath114"
       clipPathUnits="userSpaceOnUse"><path
         id="path112"
         d="m 221.8248,439.463 8.2461,-1.1589 -2.1,-14.942 -8.2461,1.1589 z" /></clipPath><clipPath
       id="clipPath120"
       clipPathUnits="userSpaceOnUse"><path
         id="path118"
         d="M 0,0 H 470 V 656 H 0 Z" /></clipPath><clipPath
       id="clipPath132"
       clipPathUnits="userSpaceOnUse"><path
         id="path130"
         d="m 242.6967,434.3689 -2.37,-8.2651 -14.5334,4.1674 2.37,8.2651 z" /></clipPath><clipPath
       id="clipPath138"
       clipPathUnits="userSpaceOnUse"><path
         id="path136"
         d="M 0,0 H 470 V 656 H 0 Z" /></clipPath><clipPath
       id="clipPath150"
       clipPathUnits="userSpaceOnUse"><path
         id="path148"
         d="m 242.6036,433.9703 -2.2952,-8.0045 -14.5043,4.159 2.2953,8.0046 z" /></clipPath><clipPath
       id="clipPath156"
       clipPathUnits="userSpaceOnUse"><path
         id="path154"
         d="M 0,0 H 470 V 656 H 0 Z" /></clipPath><clipPath
       id="clipPath168"
       clipPathUnits="userSpaceOnUse"><path
         id="path166"
         d="M 0,0 H 470 V 656 H 0 Z" /></clipPath></defs><g
     transform="matrix(1.3333333,0,0,-1.3333333,0,132)"
     id="g10"><g
       transform="translate(-118,-391)"
       id="g12"><g
         id="g14"><g
           clip-path="url(#clipPath20)"
           id="g16"><g
             id="g22" /><g
             id="g24"><g
               clip-path="url(#clipPath30)"
               id="g26"><path
                 id="path32"
                 style="fill:#ffffff;fill-opacity:1;fill-rule:nonzero;stroke:none"
                 d="M 0,656 H 470 V 0 H 0 Z" /><g
                 transform="matrix(1,0,0,-1,217.9547,454.9686)"
                 id="g34"><path
                   id="path36"
                   style="fill:none;stroke:#000000;stroke-width:0.25;stroke-linecap:butt;stroke-linejoin:miter;stroke-miterlimit:4;stroke-dasharray:none;stroke-opacity:1"
                   d="m 19.22161,5.416175 c 4.39721,7.221565 4.39721,18.930045 0,26.151605 -4.39721,7.22157 -11.526495,7.22157 -15.923704,0 -4.397208,-7.22156 -4.397208,-18.93004 0,-26.151605 4.397209,-7.221567 11.526494,-7.221567 15.923704,0 z" /></g><g
                 transform="matrix(1,0,0,-1,126.8697,467.3797)"
                 id="g38"><path
                   id="path40"
                   style="fill:none;stroke:#000000;stroke-width:0.25;stroke-linecap:butt;stroke-linejoin:miter;stroke-miterlimit:4;stroke-dasharray:none;stroke-opacity:1"
                   d="m 31.53908,8.984378 c 7.215,11.979172 7.215,31.401242 0,43.380422 -7.215,11.97917 -18.91283,11.97917 -26.12783,0 -7.215,-11.97918 -7.215,-31.40125 0,-43.380422 7.215,-11.979171 18.91283,-11.979171 26.12783,0 z" /></g><g
                 transform="matrix(1,0,0,-1,146.6414,467.2762)"
                 id="g42"><path
                   id="path44"
                   style="fill:none;stroke:#000000;stroke-width:0.25;stroke-linecap:butt;stroke-linejoin:miter;stroke-miterlimit:4;stroke-dasharray:none;stroke-opacity:1"
                   d="M 0,0 C 56.27829,10.75844 111.3341,16.63079 165.1673,17.61705" /></g><g
                 transform="matrix(1,0,0,-1,146.6414,423.179)"
                 id="g46"><path
                   id="path48"
                   style="fill:none;stroke:#000000;stroke-width:0.25;stroke-linecap:butt;stroke-linejoin:miter;stroke-miterlimit:4;stroke-dasharray:none;stroke-opacity:1"
                   d="M 0,17.65833 C 57.29497,6.97075 112.5298,1.084642 165.7046,0" /></g><g
                 transform="matrix(1,0,0,-1,305.5529,449.7197)"
                 id="g50"><path
                   id="path52"
                   style="fill:none;stroke:#000000;stroke-width:0.25;stroke-linecap:butt;stroke-linejoin:miter;stroke-miterlimit:4;stroke-dasharray:none;stroke-opacity:1"
                   d="m 10.04815,3.811891 c 2.29865,5.082523 2.29865,13.322919 0,18.405439 -2.298655,5.08252 -6.025508,5.08252 -8.324161,0 -2.2986522,-5.08252 -2.2986522,-13.322916 0,-18.405439 2.298653,-5.082521 6.025506,-5.082521 8.324161,0 z" /></g></g></g><g
             id="g54"><g
               clip-path="url(#clipPath60)"
               id="g56"><g
                 clip-path="url(#clipPath66)"
                 id="g62"><g
                   transform="matrix(0.9335804,0.3583679,0.3583679,-0.9335804,223.0773,452.9199)"
                   id="g68"><path
                     id="path70"
                     style="fill:none;stroke:#000000;stroke-width:0.25;stroke-linecap:butt;stroke-linejoin:miter;stroke-miterlimit:4;stroke-dasharray:none;stroke-opacity:1"
                     d="M 0.4196662,17.78647 C -0.9502284,16.25107 1.033634,10.32225 6.371253,0" /></g></g></g></g><g
             id="g72"><g
               clip-path="url(#clipPath78)"
               id="g74"><g
                 clip-path="url(#clipPath84)"
                 id="g80"><g
                   transform="matrix(0.9335804,0.3583679,0.3583679,-0.9335804,223.4083,453.1371)"
                   id="g86"><path
                     id="path88"
                     style="fill:none;stroke:#000000;stroke-width:0.25;stroke-linecap:butt;stroke-linejoin:miter;stroke-miterlimit:4;stroke-dasharray:none;stroke-opacity:1"
                     d="M 0,17.83667 C 4.543424,8.752937 6.548427,2.807379 6.015009,0" /></g></g></g></g><g
             id="g90"><g
               clip-path="url(#clipPath96)"
               id="g92"><g
                 clip-path="url(#clipPath102)"
                 id="g98"><g
                   transform="matrix(0.9902681,-0.1391731,-0.1391731,-0.9902681,222.3819,438.2812)"
                   id="g104"><path
                     id="path106"
                     style="fill:none;stroke:#000000;stroke-width:0.25;stroke-linecap:butt;stroke-linejoin:miter;stroke-miterlimit:4;stroke-dasharray:none;stroke-opacity:1"
                     d="M 0.4196663,12.94992 C -0.9502285,11.83204 1.033634,7.515396 6.371253,0" /></g></g></g></g><g
             id="g108"><g
               clip-path="url(#clipPath114)"
               id="g110"><g
                 clip-path="url(#clipPath120)"
                 id="g116"><g
                   transform="matrix(0.9902681,-0.1391731,-0.1391731,-0.9902681,222.7735,438.288)"
                   id="g122"><path
                     id="path124"
                     style="fill:none;stroke:#000000;stroke-width:0.25;stroke-linecap:butt;stroke-linejoin:miter;stroke-miterlimit:4;stroke-dasharray:none;stroke-opacity:1"
                     d="M 0,12.98647 C 4.543424,6.372813 6.548427,2.043988 6.015008,0" /></g></g></g></g><g
             id="g126"><g
               clip-path="url(#clipPath132)"
               id="g128"><g
                 clip-path="url(#clipPath138)"
                 id="g134"><g
                   transform="matrix(-0.2756374,-0.9612617,-0.9612617,0.2756374,241.3558,433.5831)"
                   id="g140"><path
                     id="path142"
                     style="fill:none;stroke:#000000;stroke-width:0.25;stroke-linecap:butt;stroke-linejoin:miter;stroke-miterlimit:4;stroke-dasharray:none;stroke-opacity:1"
                     d="M 0.4196662,12.94992 C -0.9502284,11.83204 1.033634,7.515396 6.371253,0" /></g></g></g></g><g
             id="g144"><g
               clip-path="url(#clipPath150)"
               id="g146"><g
                 clip-path="url(#clipPath156)"
                 id="g152"><g
                   transform="matrix(-0.2756374,-0.9612617,-0.9612617,0.2756374,241.308,433.1943)"
                   id="g158"><path
                     id="path160"
                     style="fill:none;stroke:#000000;stroke-width:0.25;stroke-linecap:butt;stroke-linejoin:miter;stroke-miterlimit:4;stroke-dasharray:none;stroke-opacity:1"
                     d="M 0,12.98647 C 4.543423,6.372814 6.548426,2.043989 6.015008,0" /></g></g></g></g><g
             id="g162"><g
               clip-path="url(#clipPath168)"
               id="g164"><path
                 id="path170"
                 style="fill:#d5d5d5;fill-opacity:1;fill-rule:nonzero;stroke:none"
                 d="m 230.8149,437.894 c 0.5357,-0.5542 0.5357,-1.4526 0,-2.0068 -0.5356,-0.5541 -1.4041,-0.5541 -1.9398,0 -0.5356,0.5542 -0.5356,1.4526 0,2.0068 0.5357,0.5541 1.4042,0.5541 1.9398,0 z" /><g
                 transform="translate(212.4936,450.8162)"
                 id="g172"><text
                   id="text176"
                   style="font-style:italic;font-variant:normal;font-size:9px;font-family:STIXGeneral;-inkscape-font-specification:STIXGeneral-Italic;writing-mode:lr-tb;fill:#00a2ff;fill-opacity:1;fill-rule:nonzero;stroke:none"
                   transform="matrix(1,0,0,-1,0,8.775055)"><tspan
                     id="tspan174"
                     y="0"
                     x="0">V</tspan></text>
</g><g
                 transform="translate(212.4936,446.3162)"
                 id="g178"><text
                   id="text182"
                   style="font-style:italic;font-variant:normal;font-size:8px;font-family:STIXGeneral;-inkscape-font-specification:STIXGeneral-Italic;writing-mode:lr-tb;fill:#00a2ff;fill-opacity:1;fill-rule:nonzero;stroke:none"
                   transform="matrix(1,0,0,-1,5.182783,11.02505)"><tspan
                     id="tspan180"
                     y="0"
                     x="0">θ</tspan></text>
</g><g
                 transform="translate(212.4936,450.8162)"
                 id="g184"><text
                   id="text188"
                   style="font-variant:normal;font-weight:normal;font-size:9px;font-family:STIXGeneral;-inkscape-font-specification:STIXGeneral-Regular;writing-mode:lr-tb;fill:#00a2ff;fill-opacity:1;fill-rule:nonzero;stroke:none"
                   transform="matrix(1,0,0,-1,12.20278,8.775055)"><tspan
                     id="tspan186"
                     y="0"
                     x="0">=</tspan></text>
</g><g
                 transform="translate(212.4936,450.8162)"
                 id="g190"><text
                   id="text194"
                   style="font-variant:normal;font-weight:normal;font-size:9px;font-family:STIXGeneral;-inkscape-font-specification:STIXGeneral-Regular;writing-mode:lr-tb;fill:#00a2ff;fill-opacity:1;fill-rule:nonzero;stroke:none"
                   transform="matrix(1,0,0,-1,21.17478,8.775055)"><tspan
                     id="tspan192"
                     y="0"
                     x="0">Ω</tspan></text>
</g><g
                 transform="translate(212.4936,450.8162)"
                 id="g196"><text
                   id="text200"
                   style="font-style:italic;font-variant:normal;font-size:9px;font-family:STIXGeneral;-inkscape-font-specification:STIXGeneral-Italic;writing-mode:lr-tb;fill:#00a2ff;fill-opacity:1;fill-rule:nonzero;stroke:none"
                   transform="matrix(1,0,0,-1,28.72678,8.775055)"><tspan
                     id="tspan198"
                     y="0"
                     x="0">R</tspan></text>
</g><g
                 transform="translate(327.2906,419.9724)"
                 id="g202"><text
                   id="text206"
                   style="font-style:italic;font-variant:normal;font-size:9px;font-family:STIXGeneral;-inkscape-font-specification:STIXGeneral-Italic;writing-mode:lr-tb;fill:#1db100;fill-opacity:1;fill-rule:nonzero;stroke:none"
                   transform="matrix(1,0,0,-1,0,8.775055)"><tspan
                     id="tspan204"
                     y="0"
                     x="0">u</tspan></text>
</g><g
                 transform="translate(327.2906,419.9724)"
                 id="g208"><text
                   id="text212"
                   style="font-variant:normal;font-weight:normal;font-size:9px;font-family:STIXGeneral;-inkscape-font-specification:STIXGeneral-Regular;writing-mode:lr-tb;fill:#1db100;fill-opacity:1;fill-rule:nonzero;stroke:none"
                   transform="matrix(1,0,0,-1,5.079217,8.775055)"><tspan
                     id="tspan210"
                     y="0"
                     x="0">′</tspan></text>
</g><g
                 transform="translate(327.2906,419.9724)"
                 id="g214" /><g
                 transform="translate(327.2906,415.4724)"
                 id="g216"><text
                   id="text220"
                   style="font-style:italic;font-variant:normal;font-size:8px;font-family:STIXGeneral;-inkscape-font-specification:STIXGeneral-Italic;writing-mode:lr-tb;fill:#1db100;fill-opacity:1;fill-rule:nonzero;stroke:none"
                   transform="matrix(1,0,0,-1,4.763,11.02505)"><tspan
                     id="tspan218"
                     y="0"
                     x="0">x</tspan></text>
</g><g
                 transform="translate(241.9036,422.1054)"
                 id="g222"><text
                   id="text226"
                   style="font-style:italic;font-variant:normal;font-size:9px;font-family:STIXGeneral;-inkscape-font-specification:STIXGeneral-Italic;writing-mode:lr-tb;fill:#1db100;fill-opacity:1;fill-rule:nonzero;stroke:none"
                   transform="matrix(1,0,0,-1,0,8.775055)"><tspan
                     id="tspan224"
                     y="0"
                     x="0">u</tspan></text>
</g><g
                 transform="translate(241.9036,417.6054)"
                 id="g228"><text
                   id="text232"
                   style="font-style:italic;font-variant:normal;font-size:8px;font-family:STIXGeneral;-inkscape-font-specification:STIXGeneral-Italic;writing-mode:lr-tb;fill:#1db100;fill-opacity:1;fill-rule:nonzero;stroke:none"
                   transform="matrix(1,0,0,-1,4.763,11.02505)"><tspan
                     id="tspan230"
                     y="0"
                     x="0">x</tspan></text>
</g><g
                 transform="matrix(0.9299436,-0.3677022,-0.3677022,-0.9299436,312.9885,449.36)"
                 id="g234"><path
                   id="path236"
                   style="fill:none;stroke:#1db100;stroke-width:0.5;stroke-linecap:butt;stroke-linejoin:miter;stroke-miterlimit:4;stroke-dasharray:none;stroke-opacity:1"
                   d="m 0,0 h 4.551789 0.25" /></g><path
                 id="path238"
                 style="fill:#1db100;fill-opacity:1;fill-rule:nonzero;stroke:none"
                 d="m 316.6699,446.2914 3.3414,0.2918 -2.2383,2.498 z" /><g
                 transform="translate(322.1085,434.3749)"
                 id="g240"><text
                   id="text244"
                   style="font-style:italic;font-variant:normal;font-size:9px;font-family:STIXGeneral;-inkscape-font-specification:STIXGeneral-Italic;writing-mode:lr-tb;fill:#1db100;fill-opacity:1;fill-rule:nonzero;stroke:none"
                   transform="matrix(1,0,0,-1,0,8.775055)"><tspan
                     id="tspan242"
                     y="0"
                     x="0">u</tspan></text>
</g><g
                 transform="translate(322.1085,434.3749)"
                 id="g246"><text
                   id="text250"
                   style="font-variant:normal;font-weight:normal;font-size:9px;font-family:STIXGeneral;-inkscape-font-specification:STIXGeneral-Regular;writing-mode:lr-tb;fill:#1db100;fill-opacity:1;fill-rule:nonzero;stroke:none"
                   transform="matrix(1,0,0,-1,4.770416,8.775055)"><tspan
                     id="tspan248"
                     y="0"
                     x="0">′</tspan></text>
</g><g
                 transform="translate(322.1085,434.3749)"
                 id="g252" /><g
                 transform="translate(322.1085,427.1989)"
                 id="g254"><text
                   id="text258"
                   style="font-style:italic;font-variant:normal;font-size:8px;font-family:STIXGeneral;-inkscape-font-specification:STIXGeneral-Italic;writing-mode:lr-tb;fill:#1db100;fill-opacity:1;fill-rule:nonzero;stroke:none"
                   transform="matrix(1,0,0,-1,4.266155,12.36305)"><tspan
                     id="tspan256"
                     y="0"
                     x="0">θ</tspan></text>
</g><g
                 transform="translate(322.1085,434.3749)"
                 id="g260"><text
                   id="text264"
                   style="font-variant:normal;font-weight:normal;font-size:9px;font-family:STIXGeneral;-inkscape-font-specification:STIXGeneral-Regular;writing-mode:lr-tb;fill:#1db100;fill-opacity:1;fill-rule:nonzero;stroke:none"
                   transform="matrix(1,0,0,-1,11.28616,8.775055)"><tspan
                     id="tspan262"
                     y="0"
                     x="0">=</tspan></text>
</g><g
                 transform="translate(322.1085,434.3749)"
                 id="g266"><text
                   id="text270"
                   style="font-style:italic;font-variant:normal;font-size:9px;font-family:STIXGeneral;-inkscape-font-specification:STIXGeneral-Italic;writing-mode:lr-tb;fill:#1db100;fill-opacity:1;fill-rule:nonzero;stroke:none"
                   transform="matrix(1,0,0,-1,20.27616,8.775055)"><tspan
                     id="tspan268"
                     y="0"
                     x="0">ω</tspan></text>
</g><g
                 transform="translate(322.1085,434.3749)"
                 id="g272"><text
                   id="text276"
                   style="font-style:italic;font-variant:normal;font-size:9px;font-family:STIXGeneral;-inkscape-font-specification:STIXGeneral-Italic;writing-mode:lr-tb;fill:#1db100;fill-opacity:1;fill-rule:nonzero;stroke:none"
                   transform="matrix(1,0,0,-1,27.6937,8.775055)"><tspan
                     id="tspan274"
                     y="0"
                     x="0">R</tspan></text>
</g><g
                 transform="translate(322.1085,434.3749)"
                 id="g278"><text
                   id="text282"
                   style="font-variant:normal;font-weight:normal;font-size:9px;font-family:STIXGeneral;-inkscape-font-specification:STIXGeneral-Regular;writing-mode:lr-tb;fill:#1db100;fill-opacity:1;fill-rule:nonzero;stroke:none"
                   transform="matrix(1,0,0,-1,33.20349,8.775055)"><tspan
                     id="tspan280"
                     y="0"
                     x="0">′</tspan></text>
</g><g
                 transform="translate(322.1085,434.3749)"
                 id="g284" /><path
                 id="path286"
                 style="fill:#d5d5d5;fill-opacity:1;fill-rule:nonzero;stroke:none"
                 d="m 234.3255,439.4836 -1.3199,3.3722 -0.6341,-0.7987 c -0.0133,0.0107 -0.0266,0.0218 -0.04,0.0325 -2.3649,1.8777 -5.4841,1.8861 -6.9667,0.0189 0,-10e-5 -2e-4,-3e-4 -3e-4,-4e-4 l 1.582,-1.2561 c 0,1e-4 2e-4,3e-4 3e-4,4e-4 0.935,1.1776 2.9018,1.1726 4.3932,-0.0115 0.0134,-0.0107 0.0265,-0.0221 0.0397,-0.0329 l -0.6381,-0.8037 z" /><g
                 transform="matrix(-0.6218254,-0.7831559,-0.7831559,0.6218254,235.4574,440.9091)"
                 id="g288"><path
                   id="path290"
                   style="fill:none;stroke:#000000;stroke-width:0.25;stroke-linecap:butt;stroke-linejoin:miter;stroke-miterlimit:4;stroke-dasharray:none;stroke-opacity:1"
                   d="M 1.820198,0 0,3.13062 h 1.019782 c -1.2e-4,0.017065 -5.35e-4,0.034412 -5.35e-4,0.051499 0,3.019686 1.932938,5.467743 4.317219,5.467743 1.21e-4,0 4.15e-4,0 5.35e-4,0 V 6.629867 c -1.2e-4,0 -4.14e-4,0 -5.35e-4,0 -1.503618,0 -2.722808,-1.54342 -2.722807,-3.447748 0,-0.01713 8.82e-4,-0.034455 0.00107,-0.051499 h 1.026203 z" /></g><path
                 id="path292"
                 style="fill:#d5d5d5;fill-opacity:1;fill-rule:nonzero;stroke:none"
                 d="m 312.0481,444.2447 v -1.4675 c -1.2991,-0.0247 -2.3916,-1.8325 -2.7313,-4.2952 l 0.9803,-0.9345 c 0.1552,1.7148 0.8784,3.0165 1.751,3.0427 v -1.3392 l 1.6419,2.4969 z m 2.1124,-3.2566 -0.8548,-1.3358 c 0.5885,-1.0816 0.7834,-2.8737 0.4269,-4.405 l -0.5804,0.5979 0.349,-4.1472 1.815,1.9186 -0.6358,0.6546 c 0.5428,2.2995 0.2984,4.976 -0.5199,6.7169 z m -4.9334,-3.7019 -0.2868,-4.1692 0.6257,0.6962 c 0.6739,-2.5298 2.1158,-3.6459 3.4025,-2.7755 l -0.1916,2.1846 c -0.8407,-0.7287 -1.8263,-0.0456 -2.2776,1.6271 l 0.5708,0.6338 z" /><g
                 transform="matrix(1,0,0,-1,308.9403,444.2447)"
                 id="g294"><path
                   id="path296"
                   style="fill:none;stroke:#000000;stroke-width:0.25;stroke-linecap:butt;stroke-linejoin:miter;stroke-miterlimit:4;stroke-dasharray:none;stroke-opacity:1"
                   d="M 3.107809,0 V 1.467582 C 1.808687,1.492229 0.716191,3.299995 0.3764324,5.762776 L 1.356725,6.697217 C 1.511977,4.98247 2.235203,3.680739 3.107809,3.654499 V 4.993712 L 4.74966,2.496856 Z M 5.2202,3.256668 4.365385,4.592411 C 4.95391,5.673995 5.148786,7.466134 4.792232,8.99747 L 4.211899,8.399566 4.560883,12.54673 6.375826,10.62812 5.740036,9.973545 C 6.282851,7.674005 6.038456,4.997579 5.2202,3.256668 Z M 0.2868056,6.958583 0,11.12772 0.6257069,10.43151 C 1.299611,12.96132 2.741499,14.07743 4.028164,13.20708 L 3.836587,11.02248 C 2.99587,11.75112 2.010253,11.06808 1.558946,9.395302 L 2.129757,8.761546 Z" /></g><g
                 transform="translate(142.7712,420.1974)"
                 id="g298"><text
                   id="text302"
                   style="font-style:italic;font-variant:normal;font-size:9px;font-family:STIXGeneral;-inkscape-font-specification:STIXGeneral-Italic;writing-mode:lr-tb;fill:#00a2ff;fill-opacity:1;fill-rule:nonzero;stroke:none"
                   transform="matrix(1,0,0,-1,0,8.775055)"><tspan
                     id="tspan300"
                     y="0"
                     x="0">V</tspan></text>
</g><g
                 transform="translate(142.7712,415.6974)"
                 id="g304"><text
                   id="text308"
                   style="font-style:italic;font-variant:normal;font-size:8px;font-family:STIXGeneral;-inkscape-font-specification:STIXGeneral-Italic;writing-mode:lr-tb;fill:#00a2ff;fill-opacity:1;fill-rule:nonzero;stroke:none"
                   transform="matrix(1,0,0,-1,5.182783,11.02505)"><tspan
                     id="tspan306"
                     y="0"
                     x="0">x</tspan></text>
</g><g
                 transform="matrix(1,0,0,-1,118.4123,436.7051)"
                 id="g310"><path
                   id="path312"
                   style="fill:none;stroke:#000000;stroke-width:0.25;stroke-linecap:butt;stroke-linejoin:miter;stroke-miterlimit:4;stroke-dasharray:0.5, 0.5;stroke-dashoffset:0;stroke-opacity:1"
                   d="M 0,0 H 231.7099" /></g><g
                 transform="translate(217.5873,386.0507)"
                 id="g314"><text
                   id="text318"
                   style="font-style:italic;font-variant:normal;font-size:9px;font-family:STIXGeneral;-inkscape-font-specification:STIXGeneral-Italic;writing-mode:lr-tb;fill:#000000;fill-opacity:1;fill-rule:nonzero;stroke:none"
                   transform="matrix(1,0,0,-1,0,8.868531)"><tspan
                     id="tspan316"
                     y="0"
                     x="0">S</tspan></text>
</g><g
                 transform="translate(217.5873,386.0507)"
                 id="g320"><text
                   id="text324"
                   style="font-variant:normal;font-weight:normal;font-size:9px;font-family:STIXGeneral;-inkscape-font-specification:STIXGeneral-Regular;writing-mode:lr-tb;fill:#000000;fill-opacity:1;fill-rule:nonzero;stroke:none"
                   transform="matrix(1,0,0,-1,8.221169,8.868531)"><tspan
                     id="tspan322"
                     y="0"
                     x="0">=</tspan></text>
</g><g
                 transform="translate(217.5873,386.0507)"
                 id="g326"><text
                   id="text330"
                   style="font-style:italic;font-variant:normal;font-size:9px;font-family:STIXGeneral;-inkscape-font-specification:STIXGeneral-Italic;writing-mode:lr-tb;fill:#000000;fill-opacity:1;fill-rule:nonzero;stroke:none"
                   transform="matrix(1,0,0,-1,17.18135,8.868531)"><tspan
                     id="tspan328"
                     y="0"
                     x="0">π</tspan></text>
</g><g
                 transform="translate(217.5873,386.0507)"
                 id="g332"><text
                   id="text336"
                   style="font-style:italic;font-variant:normal;font-size:9px;font-family:STIXGeneral;-inkscape-font-specification:STIXGeneral-Italic;writing-mode:lr-tb;fill:#000000;fill-opacity:1;fill-rule:nonzero;stroke:none"
                   transform="matrix(1,0,0,-1,23.28636,8.868531)"><tspan
                     id="tspan334"
                     y="0"
                     x="0">R</tspan></text>
</g><g
                 transform="translate(217.5873,392.7107)"
                 id="g338"><text
                   id="text342"
                   style="font-variant:normal;font-weight:normal;font-size:8px;font-family:STIXGeneral;-inkscape-font-specification:STIXGeneral-Regular;writing-mode:lr-tb;fill:#000000;fill-opacity:1;fill-rule:nonzero;stroke:none"
                   transform="matrix(1,0,0,-1,29.25336,5.538531)"><tspan
                     id="tspan340"
                     y="0"
                     x="0">2</tspan></text>
</g><g
                 transform="translate(297.8077,386.4758)"
                 id="g344"><text
                   id="text348"
                   style="font-style:italic;font-variant:normal;font-size:9px;font-family:STIXGeneral;-inkscape-font-specification:STIXGeneral-Italic;writing-mode:lr-tb;fill:#000000;fill-opacity:1;fill-rule:nonzero;stroke:none"
                   transform="matrix(1,0,0,-1,0,8.840531)"><tspan
                     id="tspan346"
                     y="0"
                     x="0">S</tspan></text>
</g><g
                 transform="translate(297.8077,386.4758)"
                 id="g350"><text
                   id="text354"
                   style="font-variant:normal;font-weight:normal;font-size:9px;font-family:STIXGeneral;-inkscape-font-specification:STIXGeneral-Regular;writing-mode:lr-tb;fill:#000000;fill-opacity:1;fill-rule:nonzero;stroke:none"
                   transform="matrix(1,0,0,-1,4.525703,8.840531)"><tspan
                     id="tspan352"
                     y="0"
                     x="0">′</tspan></text>
</g><g
                 transform="translate(297.8077,386.4758)"
                 id="g356" /><g
                 transform="translate(297.8077,386.4758)"
                 id="g358"><text
                   id="text362"
                   style="font-variant:normal;font-weight:normal;font-size:9px;font-family:STIXGeneral;-inkscape-font-specification:STIXGeneral-Regular;writing-mode:lr-tb;fill:#000000;fill-opacity:1;fill-rule:nonzero;stroke:none"
                   transform="matrix(1,0,0,-1,9.519703,8.840531)"><tspan
                     id="tspan360"
                     y="0"
                     x="0">=</tspan></text>
</g><g
                 transform="translate(297.8077,386.4758)"
                 id="g364"><text
                   id="text368"
                   style="font-style:italic;font-variant:normal;font-size:9px;font-family:STIXGeneral;-inkscape-font-specification:STIXGeneral-Italic;writing-mode:lr-tb;fill:#000000;fill-opacity:1;fill-rule:nonzero;stroke:none"
                   transform="matrix(1,0,0,-1,18.47989,8.840531)"><tspan
                     id="tspan366"
                     y="0"
                     x="0">π</tspan></text>
</g><g
                 transform="translate(297.8077,386.4758)"
                 id="g370"><text
                   id="text374"
                   style="font-style:italic;font-variant:normal;font-size:9px;font-family:STIXGeneral;-inkscape-font-specification:STIXGeneral-Italic;writing-mode:lr-tb;fill:#000000;fill-opacity:1;fill-rule:nonzero;stroke:none"
                   transform="matrix(1,0,0,-1,24.5849,8.840531)"><tspan
                     id="tspan372"
                     y="0"
                     x="0">R</tspan></text>
</g><g
                 transform="translate(297.8077,386.4758)"
                 id="g376"><text
                   id="text380"
                   style="font-variant:normal;font-weight:normal;font-size:9px;font-family:STIXGeneral;-inkscape-font-specification:STIXGeneral-Regular;writing-mode:lr-tb;fill:#000000;fill-opacity:1;fill-rule:nonzero;stroke:none"
                   transform="matrix(1,0,0,-1,30.09469,8.840531)"><tspan
                     id="tspan378"
                     y="0"
                     x="0">′</tspan></text>
</g><g
                 transform="translate(297.8077,386.4758)"
                 id="g382" /><g
                 transform="translate(297.8077,393.0798)"
                 id="g384"><text
                   id="text388"
                   style="font-variant:normal;font-weight:normal;font-size:8px;font-family:STIXGeneral;-inkscape-font-specification:STIXGeneral-Regular;writing-mode:lr-tb;fill:#000000;fill-opacity:1;fill-rule:nonzero;stroke:none"
                   transform="matrix(1,0,0,-1,32.78869,5.538531)"><tspan
                     id="tspan386"
                     y="0"
                     x="0">2</tspan></text>
</g><g
                 transform="translate(131.8424,386.5406)"
                 id="g390"><text
                   id="text394"
                   style="font-style:italic;font-variant:normal;font-size:9px;font-family:STIXGeneral;-inkscape-font-specification:STIXGeneral-Italic;writing-mode:lr-tb;fill:#000000;fill-opacity:1;fill-rule:nonzero;stroke:none"
                   transform="matrix(1,0,0,-1,0,8.868531)"><tspan
                     id="tspan392"
                     y="0"
                     x="0">S</tspan></text>
</g><g
                 transform="translate(131.8424,382.0406)"
                 id="g396"><text
                   id="text400"
                   style="font-variant:normal;font-weight:normal;font-size:8px;font-family:STIXGeneral;-inkscape-font-specification:STIXGeneral-Regular;writing-mode:lr-tb;fill:#000000;fill-opacity:1;fill-rule:nonzero;stroke:none"
                   transform="matrix(1,0,0,-1,4.183783,11.11853)"><tspan
                     id="tspan398"
                     y="0"
                     x="0">0</tspan></text>
</g><g
                 transform="translate(131.8424,386.5406)"
                 id="g402"><text
                   id="text406"
                   style="font-variant:normal;font-weight:normal;font-size:9px;font-family:STIXGeneral;-inkscape-font-specification:STIXGeneral-Regular;writing-mode:lr-tb;fill:#000000;fill-opacity:1;fill-rule:nonzero;stroke:none"
                   transform="matrix(1,0,0,-1,11.05978,8.868531)"><tspan
                     id="tspan404"
                     y="0"
                     x="0">=</tspan></text>
</g><g
                 transform="translate(131.8424,386.5406)"
                 id="g408"><text
                   id="text412"
                   style="font-style:italic;font-variant:normal;font-size:9px;font-family:STIXGeneral;-inkscape-font-specification:STIXGeneral-Italic;writing-mode:lr-tb;fill:#000000;fill-opacity:1;fill-rule:nonzero;stroke:none"
                   transform="matrix(1,0,0,-1,20.01997,8.868531)"><tspan
                     id="tspan410"
                     y="0"
                     x="0">π</tspan></text>
</g><g
                 transform="translate(131.8424,386.5406)"
                 id="g414"><text
                   id="text418"
                   style="font-style:italic;font-variant:normal;font-size:9px;font-family:STIXGeneral;-inkscape-font-specification:STIXGeneral-Italic;writing-mode:lr-tb;fill:#000000;fill-opacity:1;fill-rule:nonzero;stroke:none"
                   transform="matrix(1,0,0,-1,26.12498,8.868531)"><tspan
                     id="tspan416"
                     y="0"
                     x="0">R</tspan></text>
</g><g
                 transform="translate(131.8424,393.2006)"
                 id="g420"><text
                   id="text424"
                   style="font-variant:normal;font-weight:normal;font-size:8px;font-family:STIXGeneral;-inkscape-font-specification:STIXGeneral-Regular;writing-mode:lr-tb;fill:#000000;fill-opacity:1;fill-rule:nonzero;stroke:none"
                   transform="matrix(1,0,0,-1,32.96433,5.538531)"><tspan
                     id="tspan422"
                     y="0"
                     x="0">2</tspan></text>
</g><g
                 transform="translate(131.8424,378.8206)"
                 id="g426"><text
                   id="text430"
                   style="font-variant:normal;font-weight:normal;font-size:8px;font-family:STIXGeneral;-inkscape-font-specification:STIXGeneral-Regular;writing-mode:lr-tb;fill:#000000;fill-opacity:1;fill-rule:nonzero;stroke:none"
                   transform="matrix(1,0,0,-1,31.95384,12.72853)"><tspan
                     id="tspan428"
                     y="0"
                     x="0">0</tspan></text>
</g><g
                 transform="translate(137.0342,408.3925)"
                 id="g432"><text
                   id="text436"
                   style="font-style:italic;font-variant:normal;font-size:6px;font-family:STIXGeneral;-inkscape-font-specification:STIXGeneral-Italic;writing-mode:lr-tb;fill:#000000;fill-opacity:1;fill-rule:nonzero;stroke:none"
                   transform="matrix(1,0,0,-1,0,5.850037)"><tspan
                     id="tspan434"
                     y="0"
                     x="0">p</tspan></text>
</g><g
                 transform="translate(137.0342,404.6005)"
                 id="g438"><text
                   id="text442"
                   style="font-variant:normal;font-weight:normal;font-size:6px;font-family:STIXGeneral;-inkscape-font-specification:STIXGeneral-Regular;writing-mode:lr-tb;fill:#000000;fill-opacity:1;fill-rule:nonzero;stroke:none"
                   transform="matrix(1,0,0,-1,3.472635,7.746037)"><tspan
                     id="tspan440"
                     y="0"
                     x="0">0</tspan></text>
</g><g
                 transform="matrix(0.9990805,-0.04287334,-0.04287334,-0.9990805,168.1311,461.9643)"
                 id="g444"><path
                   id="path446"
                   style="fill:none;stroke:#000000;stroke-width:0.5;stroke-linecap:butt;stroke-linejoin:miter;stroke-miterlimit:4;stroke-dasharray:none;stroke-opacity:1"
                   d="M 2.75,0 H 3 h 17.32466 0.25" /></g><path
                 id="path448"
                 style="fill:#000000;fill-opacity:1;fill-rule:nonzero;stroke:none"
                 d="m 188.3728,459.5943 3.0615,1.37 -2.9329,1.6272 z" /><path
                 id="path450"
                 style="fill:#000000;fill-opacity:1;fill-rule:nonzero;stroke:none"
                 d="m 171.1927,463.3343 -3.0616,-1.37 2.933,-1.6273 z" /><g
                 transform="translate(176.4813,449.6109)"
                 id="g452"><text
                   id="text456"
                   style="font-style:italic;font-variant:normal;font-size:6px;font-family:STIXGeneral;-inkscape-font-specification:STIXGeneral-Italic;writing-mode:lr-tb;fill:#000000;fill-opacity:1;fill-rule:nonzero;stroke:none"
                   transform="matrix(1,0,0,-1,0,5.850037)"><tspan
                     id="tspan454"
                     y="0"
                     x="0">X</tspan></text>
</g><g
                 transform="translate(176.4813,446.6109)"
                 id="g458"><text
                   id="text462"
                   style="font-style:italic;font-variant:normal;font-size:6px;font-family:STIXGeneral;-inkscape-font-specification:STIXGeneral-Italic;writing-mode:lr-tb;fill:#000000;fill-opacity:1;fill-rule:nonzero;stroke:none"
                   transform="matrix(1,0,0,-1,3.944792,7.350037)"><tspan
                     id="tspan460"
                     y="0"
                     x="0">p</tspan></text>
</g><g
                 transform="matrix(1,0,0,-1,269.8913,450.5951)"
                 id="g464"><path
                   id="path466"
                   style="fill:none;stroke:#000000;stroke-width:0.5;stroke-linecap:butt;stroke-linejoin:miter;stroke-miterlimit:4;stroke-dasharray:none;stroke-opacity:1"
                   d="M 2.75,0 H 3 h 17.30321 0.25" /></g><path
                 id="path468"
                 style="fill:#000000;fill-opacity:1;fill-rule:nonzero;stroke:none"
                 d="m 290.1945,449.0951 3,1.5 -3,1.5 z" /><path
                 id="path470"
                 style="fill:#000000;fill-opacity:1;fill-rule:nonzero;stroke:none"
                 d="m 272.8913,452.0951 -3,-1.5 3,-1.5 z" /><g
                 transform="translate(278.2415,439.3748)"
                 id="g472"><text
                   id="text476"
                   style="font-style:italic;font-variant:normal;font-size:6px;font-family:STIXGeneral;-inkscape-font-specification:STIXGeneral-Italic;writing-mode:lr-tb;fill:#000000;fill-opacity:1;fill-rule:nonzero;stroke:none"
                   transform="matrix(1,0,0,-1,0,5.850037)"><tspan
                     id="tspan474"
                     y="0"
                     x="0">X</tspan></text>
</g><g
                 transform="translate(278.2415,436.3748)"
                 id="g478"><text
                   id="text482"
                   style="font-style:italic;font-variant:normal;font-size:6px;font-family:STIXGeneral;-inkscape-font-specification:STIXGeneral-Italic;writing-mode:lr-tb;fill:#000000;fill-opacity:1;fill-rule:nonzero;stroke:none"
                   transform="matrix(1,0,0,-1,3.944792,7.350037)"><tspan
                     id="tspan480"
                     y="0"
                     x="0">p</tspan></text>
</g><g
                 transform="translate(129,483)"
                 id="g484"><text
                   id="text488"
                   style="font-variant:normal;font-weight:bold;font-size:10px;font-family:TimesNewRomanPS;-inkscape-font-specification:TimesNewRomanPS-BoldMT;writing-mode:lr-tb;fill:#000000;fill-opacity:1;fill-rule:nonzero;stroke:none"
                   transform="scale(1,-1)"><tspan
                     id="tspan486"
                     y="0"
                     x="0 6.1079998 11.108 15.175 18.504999 21.834999 24.613001 29.051001 31.829">Far-field</tspan></text>
</g><g
                 transform="translate(217,483)"
                 id="g490"><text
                   id="text494"
                   style="font-variant:normal;font-weight:bold;font-size:10px;font-family:TimesNewRomanPS;-inkscape-font-specification:TimesNewRomanPS-BoldMT;writing-mode:lr-tb;fill:#000000;fill-opacity:1;fill-rule:nonzero;stroke:none"
                   transform="scale(1,-1)"><tspan
                     id="tspan492"
                     y="0"
                     x="0 7.2220001 12.222 15.552 20.552 24.809999">Rotor </tspan></text>
</g><g
                 transform="translate(300,483)"
                 id="g496"><text
                   id="text500"
                   style="font-variant:normal;font-weight:bold;font-size:10px;font-family:TimesNewRomanPS;-inkscape-font-specification:TimesNewRomanPS-BoldMT;writing-mode:lr-tb;fill:#000000;fill-opacity:1;fill-rule:nonzero;stroke:none"
                   transform="scale(1,-1)"><tspan
                     id="tspan498"
                     y="0"
                     x="0 9.448 14.448 20.01">Wake</tspan></text>
</g><g
                 transform="matrix(1,0,0,-1,198.7071,436.7051)"
                 id="g502"><path
                   id="path504"
                   style="fill:none;stroke:#b51700;stroke-width:0.5;stroke-linecap:butt;stroke-linejoin:miter;stroke-miterlimit:4;stroke-dasharray:none;stroke-opacity:1"
                   d="M 2.75,0 H 3 31.13787" /></g><path
                 id="path506"
                 style="fill:#b51700;fill-opacity:1;fill-rule:nonzero;stroke:none"
                 d="m 201.7071,438.2051 -3,-1.5 3,-1.5 z" /><g
                 transform="translate(200.7454,420.1974)"
                 id="g508"><text
                   id="text512"
                   style="font-style:italic;font-variant:normal;font-size:9px;font-family:STIXGeneral;-inkscape-font-specification:STIXGeneral-Italic;writing-mode:lr-tb;fill:#b51700;fill-opacity:1;fill-rule:nonzero;stroke:none"
                   transform="matrix(1,0,0,-1,0,8.775055)"><tspan
                     id="tspan510"
                     y="0"
                     x="0">T</tspan></text>
</g><g
                 transform="matrix(1,0,0,-1,143.3587,436.7051)"
                 id="g514"><path
                   id="path516"
                   style="fill:none;stroke:#00a2ff;stroke-width:0.5;stroke-linecap:butt;stroke-linejoin:miter;stroke-miterlimit:4;stroke-dasharray:none;stroke-opacity:1"
                   d="m 0,0 h 4.23038 0.25" /></g><path
                 id="path518"
                 style="fill:#00a2ff;fill-opacity:1;fill-rule:nonzero;stroke:none"
                 d="m 147.5891,435.2051 3,1.5 -3,1.5 z" /><g
                 transform="matrix(1,0,0,-1,229.5116,436.7051)"
                 id="g520"><path
                   id="path522"
                   style="fill:none;stroke:#1db100;stroke-width:0.5;stroke-linecap:butt;stroke-linejoin:miter;stroke-miterlimit:4;stroke-dasharray:none;stroke-opacity:1"
                   d="m 0,0 h 16.28163 0.25" /></g><path
                 id="path524"
                 style="fill:#1db100;fill-opacity:1;fill-rule:nonzero;stroke:none"
                 d="m 245.7933,435.2051 3,1.5 -3,1.5 z" /><g
                 transform="matrix(1,0,0,-1,313.3599,436.7051)"
                 id="g526"><path
                   id="path528"
                   style="fill:none;stroke:#1db100;stroke-width:0.5;stroke-linecap:butt;stroke-linejoin:miter;stroke-miterlimit:4;stroke-dasharray:none;stroke-opacity:1"
                   d="m 0,0 h 29.13787 0.25" /></g><path
                 id="path530"
                 style="fill:#1db100;fill-opacity:1;fill-rule:nonzero;stroke:none"
                 d="m 342.4977,435.2051 3,1.5 -3,1.5 z" /><g
                 transform="matrix(0.9495016,-0.3137622,-0.3137622,-0.9495016,228.5164,455.5834)"
                 id="g532"><path
                   id="path534"
                   style="fill:none;stroke:#b51700;stroke-width:0.5;stroke-linecap:butt;stroke-linejoin:miter;stroke-miterlimit:4;stroke-dasharray:none;stroke-opacity:1"
                   d="m 0,0 h 22.49703 0.25" /></g><path
                 id="path536"
                 style="fill:#b51700;fill-opacity:1;fill-rule:nonzero;stroke:none"
                 d="m 249.4067,447.1005 3.3192,0.4829 -2.3779,2.3656 z" /><g
                 transform="translate(253.2869,433.6623)"
                 id="g538"><text
                   id="text542"
                   style="font-style:italic;font-variant:normal;font-size:9px;font-family:STIXGeneral;-inkscape-font-specification:STIXGeneral-Italic;writing-mode:lr-tb;fill:#b51700;fill-opacity:1;fill-rule:nonzero;stroke:none"
                   transform="matrix(1,0,0,-1,0,8.775055)"><tspan
                     id="tspan540"
                     y="0"
                     x="0">Q</tspan></text>
</g><g
                 transform="matrix(0.9450086,-0.3270454,-0.3270454,-0.9450086,228.0903,455.8187)"
                 id="g544"><path
                   id="path546"
                   style="fill:none;stroke:#00a2ff;stroke-width:0.5;stroke-linecap:butt;stroke-linejoin:miter;stroke-miterlimit:4;stroke-dasharray:none;stroke-opacity:1"
                   d="m 0,0 h 13.9812 0.25" /></g><path
                 id="path548"
                 style="fill:#00a2ff;fill-opacity:1;fill-rule:nonzero;stroke:none"
                 d="m 240.812,449.8287 3.3256,0.4364 -2.3444,2.3986 z" /></g></g></g></g></g></g></svg>